<svg width="45" height="45" viewBox="0 0 45 45" fill="none" xmlns="http://www.w3.org/2000/svg">
<circle cx="22.5" cy="22.5" r="21.5" fill="white" stroke="#F13C6E" stroke-width="2"/>
<g clip-path="url(#clip0_43101_8)">
<path d="M26.625 11.5H18.375C14.5786 11.5 11.5 14.5786 11.5 18.375V26.625C11.5 30.4214 14.5786 33.5 18.375 33.5H26.625C30.4214 33.5 33.5 30.4214 33.5 26.625V18.375C33.5 14.5786 30.4214 11.5 26.625 11.5ZM31.4375 26.625C31.4375 29.2787 29.2787 31.4375 26.625 31.4375H18.375C15.7213 31.4375 13.5625 29.2787 13.5625 26.625V18.375C13.5625 15.7213 15.7213 13.5625 18.375 13.5625H26.625C29.2787 13.5625 31.4375 15.7213 31.4375 18.375V26.625Z" fill="#F13C6E"/>
<path d="M22.5 17C19.4626 17 17 19.4626 17 22.5C17 25.5374 19.4626 28 22.5 28C25.5374 28 28 25.5374 28 22.5C28 19.4626 25.5374 17 22.5 17ZM22.5 25.9375C20.6052 25.9375 19.0625 24.3948 19.0625 22.5C19.0625 20.6039 20.6052 19.0625 22.5 19.0625C24.3948 19.0625 25.9375 20.6039 25.9375 22.5C25.9375 24.3948 24.3948 25.9375 22.5 25.9375Z" fill="#F13C6E"/>
<path d="M28.4125 17.3204C28.8173 17.3204 29.1454 16.9922 29.1454 16.5875C29.1454 16.1827 28.8173 15.8546 28.4125 15.8546C28.0077 15.8546 27.6796 16.1827 27.6796 16.5875C27.6796 16.9922 28.0077 17.3204 28.4125 17.3204Z" fill="#F13C6E"/>
</g>
<defs>
<clipPath id="clip0_43101_8">
<rect width="22" height="22" fill="white" transform="translate(11.5 11.5)"/>
</clipPath>
</defs>
</svg>
