<svg width="45" height="45" viewBox="0 0 45 45" fill="none" xmlns="http://www.w3.org/2000/svg">
<path fill-rule="evenodd" clip-rule="evenodd" d="M43 22.5C43 33.8218 33.8218 43 22.5 43C11.1782 43 2 33.8218 2 22.5C2 11.1782 11.1782 2 22.5 2C33.8218 2 43 11.1782 43 22.5ZM45 22.5C45 34.9264 34.9264 45 22.5 45C10.0736 45 0 34.9264 0 22.5C0 10.0736 10.0736 0 22.5 0C34.9264 0 45 10.0736 45 22.5ZM16.0159 14.5H28.984C31.5283 14.5 33.5909 16.6025 33.5909 19.196V25.804C33.5909 28.3975 31.5283 30.5 28.984 30.5H16.0159C13.4716 30.5 11.4091 28.3975 11.4091 25.804V19.196C11.4091 16.6025 13.4716 14.5 16.0159 14.5ZM19.8028 25.7704L25.8684 22.8215C26.0509 22.7328 26.054 22.4692 25.8736 22.3761L19.8081 19.2429C19.6461 19.1592 19.4545 19.2792 19.4545 19.4643V25.5463C19.4545 25.7288 19.6412 25.8489 19.8028 25.7704Z" fill="#F13C6E"/>
</svg>
